<svg id="visual" viewBox="0 300 900 300" width="900" height="300" xmlns="http://www.w3.org/2000/svg" xmlns:xlink="http://www.w3.org/1999/xlink" version="1.1"><rect x="0" y="0" width="900" height="600" fill="#001220"></rect><path d="M0 391L21.5 399.2C43 407.3 86 423.7 128.8 422.3C171.7 421 214.3 402 257.2 387.2C300 372.3 343 361.7 385.8 361.2C428.7 360.7 471.3 370.3 514.2 379.8C557 389.3 600 398.7 642.8 395.2C685.7 391.7 728.3 375.3 771.2 378.5C814 381.7 857 404.3 878.5 415.7L900 427L900 601L878.5 601C857 601 814 601 771.2 601C728.3 601 685.7 601 642.8 601C600 601 557 601 514.2 601C471.3 601 428.7 601 385.8 601C343 601 300 601 257.2 601C214.3 601 171.7 601 128.8 601C86 601 43 601 21.5 601L0 601Z" fill="#fa7268"></path><path d="M0 430L21.5 434C43 438 86 446 128.8 441.7C171.7 437.3 214.3 420.7 257.2 417.8C300 415 343 426 385.8 427.3C428.7 428.7 471.3 420.3 514.2 416.2C557 412 600 412 642.8 415C685.7 418 728.3 424 771.2 420.8C814 417.7 857 405.3 878.5 399.2L900 393L900 601L878.5 601C857 601 814 601 771.2 601C728.3 601 685.7 601 642.8 601C600 601 557 601 514.2 601C471.3 601 428.7 601 385.8 601C343 601 300 601 257.2 601C214.3 601 171.7 601 128.8 601C86 601 43 601 21.5 601L0 601Z" fill="#ef5f67"></path><path d="M0 509L21.5 500.2C43 491.3 86 473.7 128.8 472.3C171.7 471 214.3 486 257.2 485.5C300 485 343 469 385.8 466.3C428.7 463.7 471.3 474.3 514.2 482.5C557 490.7 600 496.3 642.8 493.5C685.7 490.7 728.3 479.3 771.2 474.2C814 469 857 470 878.5 470.5L900 471L900 601L878.5 601C857 601 814 601 771.2 601C728.3 601 685.7 601 642.8 601C600 601 557 601 514.2 601C471.3 601 428.7 601 385.8 601C343 601 300 601 257.2 601C214.3 601 171.7 601 128.8 601C86 601 43 601 21.5 601L0 601Z" fill="#e34c67"></path><path d="M0 511L21.5 514.8C43 518.7 86 526.3 128.8 531.7C171.7 537 214.3 540 257.2 535.8C300 531.7 343 520.3 385.8 514.2C428.7 508 471.3 507 514.2 504.2C557 501.3 600 496.7 642.8 499.8C685.7 503 728.3 514 771.2 516.3C814 518.7 857 512.3 878.5 509.2L900 506L900 601L878.5 601C857 601 814 601 771.2 601C728.3 601 685.7 601 642.8 601C600 601 557 601 514.2 601C471.3 601 428.7 601 385.8 601C343 601 300 601 257.2 601C214.3 601 171.7 601 128.8 601C86 601 43 601 21.5 601L0 601Z" fill="#d53867"></path><path d="M0 563L21.5 559.2C43 555.3 86 547.7 128.8 544.2C171.7 540.7 214.3 541.3 257.2 545C300 548.7 343 555.3 385.8 557.2C428.7 559 471.3 556 514.2 553C557 550 600 547 642.8 548.7C685.7 550.3 728.3 556.7 771.2 555.8C814 555 857 547 878.5 543L900 539L900 601L878.5 601C857 601 814 601 771.2 601C728.3 601 685.7 601 642.8 601C600 601 557 601 514.2 601C471.3 601 428.7 601 385.8 601C343 601 300 601 257.2 601C214.3 601 171.7 601 128.8 601C86 601 43 601 21.5 601L0 601Z" fill="#c62368"></path></svg>